<svg width="122" height="108" viewBox="0 0 122 108" fill="none" xmlns="http://www.w3.org/2000/svg">
<path d="M119.676 22.0582L62.25 0.6129C61.444 0.311325 60.556 0.311325 59.75 0.6129L2.32417 22.0582C0.929855 22.5776 0 23.93 0 25.4062V104.039C0 106.013 1.60002 107.613 3.57422 107.613C5.3846 107.613 6.88037 106.267 7.11586 104.522L7.3318 105.169C7.95729 107.046 9.98361 108.053 11.8526 107.43C13.7254 106.805 14.7371 104.781 14.1135 102.909L7.14844 82.0139V30.5563L21.6836 35.9846V61.1484C21.6836 66.5275 26.1988 71.2968 34.3991 74.5769C41.5624 77.4418 51.0089 79.0195 61 79.0195C70.9911 79.0195 80.4376 77.4418 87.6009 74.5769C95.8012 71.2968 100.316 66.5275 100.316 61.1484V35.9846L119.676 28.7543C121.074 28.233 122 26.8983 122 25.4062C122 23.9142 121.074 22.5795 119.676 22.0582ZM93.168 61.1484C93.168 63.2762 89.9409 65.9411 84.9463 67.9395C78.6077 70.4749 70.1031 71.8711 61 71.8711C51.8969 71.8711 43.3923 70.4749 37.0537 67.9395C32.0591 65.942 28.832 63.2762 28.832 61.1484V38.6541L59.75 50.1996C60.556 50.5012 61.444 50.5012 62.25 50.1996L93.168 38.6541V61.1484ZM61 43.0363C59.615 42.516 23.3888 28.9907 23.3618 28.9805H61C62.9742 28.9805 64.5742 27.3804 64.5742 25.4062C64.5742 23.4321 62.9742 21.832 61 21.832H23.3618L61 7.77623L108.209 25.4062C103.784 27.0593 65.6474 41.3004 61 43.0363Z" fill="white"/>
</svg>
