<svg width="98" height="98" viewBox="0 0 98 98" fill="none" xmlns="http://www.w3.org/2000/svg">
<path d="M96.3847 40.6759L90.5664 37.8458C89.5961 34.2244 88.1539 30.7509 86.2656 27.4888L88.2668 21.4852C88.6106 20.4535 88.3422 19.3161 87.5731 18.5471L79.4527 10.4269C78.6839 9.65798 77.5467 9.38943 76.5146 9.7332L70.5112 11.7344C67.2489 9.84594 63.776 8.40388 60.1544 7.43364L57.3241 1.61528C56.8434 0.627238 55.841 0 54.7422 0H43.2578C42.159 0 41.1566 0.627238 40.6759 1.61528L37.8458 7.43364C34.224 8.40388 30.7511 9.84594 27.489 11.7344L21.4854 9.7332C20.4537 9.38943 19.3163 9.65778 18.5473 10.4269L10.4269 18.5473C9.65778 19.3161 9.38943 20.4537 9.7332 21.4854L11.7345 27.4888C9.84632 30.7509 8.40407 34.2242 7.43384 37.8456L1.61528 40.6759C0.627047 41.1566 0 42.159 0 43.2578V54.7422C0 55.841 0.627047 56.8434 1.61528 57.3241L7.43364 60.154C8.40388 63.7754 9.84613 67.2489 11.7344 70.5108L9.7332 76.5141C9.38924 77.5458 9.65778 78.6833 10.4267 79.4522L18.5473 87.5731C19.3163 88.3422 20.4539 88.6104 21.4855 88.2668L27.4892 86.2655C30.7513 88.1539 34.2242 89.5959 37.846 90.5662L40.6761 96.3845C41.1566 97.373 42.159 98 43.2578 98H54.7422C55.841 98 56.8434 97.373 57.3241 96.3847L60.1542 90.5664C63.7756 89.5961 67.2489 88.1539 70.511 86.2656L76.5145 88.267C77.5465 88.6109 78.6837 88.3424 79.4527 87.5733L87.5731 79.4525C88.342 78.6835 88.6106 77.5461 88.2668 76.5145L86.2656 70.5112C88.1539 67.2491 89.5961 63.7758 90.5664 60.1544L96.3847 57.3244C97.373 56.8434 98 55.841 98 54.7422V43.2578C98 42.159 97.373 41.1566 96.3847 40.6759ZM92.2578 52.946L86.8512 55.5758C86.0735 55.954 85.5075 56.6628 85.3111 57.5051C84.3924 61.4418 82.8362 65.1918 80.686 68.6511C80.2352 69.3763 80.1307 70.2647 80.4008 71.0747L82.2582 76.6469L76.6471 82.2582L71.0747 80.4006C70.2647 80.1305 69.3763 80.235 68.6511 80.686C65.1918 82.8362 61.4416 84.3924 57.5051 85.3111C56.6629 85.5077 55.954 86.0735 55.5758 86.8512L52.946 92.2578H45.0542L42.4244 86.8512C42.0462 86.0735 41.3374 85.5075 40.4952 85.3111C36.5586 84.3924 32.8086 82.836 29.3495 80.686C28.6242 80.2352 27.7359 80.1309 26.9257 80.4006L21.3533 82.2582L15.7418 76.6467L17.5994 71.0745C17.8695 70.2645 17.765 69.376 17.314 68.6507C15.1638 65.1914 13.6076 61.4416 12.6889 57.5049C12.4923 56.6628 11.9265 55.954 11.1488 55.5756L5.74219 52.946V45.0542L11.1488 42.4244C11.9265 42.046 12.4925 41.3374 12.6889 40.4951C13.6076 36.5584 15.164 32.8084 17.314 29.3491C17.7648 28.6238 17.8695 27.7355 17.5994 26.9255L15.7418 21.3529L21.3529 15.7418L26.9255 17.5994C27.7355 17.8695 28.624 17.7648 29.3493 17.314C32.8082 15.164 36.5582 13.6078 40.4951 12.6889C41.3372 12.4923 42.046 11.9265 42.4242 11.1488L45.054 5.74219H52.9458L55.5756 11.1486C55.9538 11.9263 56.6626 12.4921 57.5048 12.6887C61.4414 13.6076 65.1916 15.1638 68.6507 17.3138C69.3758 17.7646 70.2641 17.8693 71.0743 17.5992L76.6467 15.7416L82.2578 21.3527L80.4002 26.9253C80.1301 27.7353 80.2348 28.6237 80.6856 29.3489C82.8358 32.8082 84.392 36.5582 85.3107 40.4949C85.5073 41.3371 86.0731 42.0458 86.8508 42.4242L92.2578 45.054V52.946Z" fill="white"/>
</svg>
